<svg width="90" height="60" viewBox="0 0 90 60" fill="none" xmlns="http://www.w3.org/2000/svg">
<path d="M33.3871 0H0V52.6829H33.3871V0Z" fill="#EDE9E8"/>
<path d="M33.3873 52.6829H34.8389L34.8389 0H33.3873L33.3873 52.6829Z" fill="#DAD2D0"/>
<path d="M33.3872 49.7561V1.46341L1.45171 1.46341L1.45171 49.7561H33.3872Z" fill="#FBFBF9"/>
<path d="M23.0191 21.9756C26.2103 18.7584 26.2103 13.5424 23.0191 10.3253C19.8279 7.10812 14.654 7.10812 11.4628 10.3253C8.27155 13.5424 8.27155 18.7584 11.4628 21.9756C14.654 25.1927 19.8279 25.1927 23.0191 21.9756Z" fill="#EDE9E8"/>
<path d="M26.1293 29.2683H7.2583V30.7317H26.1293V29.2683Z" fill="#EDE9E8"/>
<path d="M26.1293 33.6585H7.2583V36.5854H26.1293V33.6585Z" fill="#EDE9E8"/>
<path d="M26.1293 40.9756H7.2583V42.439H26.1293V40.9756Z" fill="#EDE9E8"/>
<path d="M88.5482 7.31705H55.1611V60H88.5482V7.31705Z" fill="#EDE9E8"/>
<path d="M88.5484 60H90V7.31708H88.5484V60Z" fill="#DAD2D0"/>
<path d="M87.0967 57.0732V8.78052L56.6128 8.78052V57.0732H87.0967Z" fill="#FBFBF9"/>
<path d="M80.1162 25.494C81.1529 21.066 78.4326 16.6291 74.0403 15.584C69.6479 14.5388 65.2468 17.2813 64.2101 21.7093C63.1734 26.1374 65.8937 30.5743 70.2861 31.6194C74.6784 32.6645 79.0795 29.9221 80.1162 25.494Z" fill="#EDE9E8"/>
<path d="M82.742 36.5854H62.4194V38.0488H82.742V36.5854Z" fill="#EDE9E8"/>
<path d="M82.742 42.439H62.4194V45.3659H82.742V42.439Z" fill="#EDE9E8"/>
<path d="M82.742 48.2927H62.4194V49.7561H82.742V48.2927Z" fill="#EDE9E8"/>
</svg>
