<svg width="16" height="12" viewBox="0 0 16 12" fill="none" xmlns="http://www.w3.org/2000/svg">
<path d="M9.28486 7.23667C9.11841 7.40861 8.91768 7.54651 8.69465 7.64216C8.47162 7.73781 8.23086 7.78924 7.98673 7.79339C7.7426 7.79753 7.50011 7.75431 7.27371 7.66629C7.04732 7.57828 6.84166 7.44727 6.66901 7.2811C6.49636 7.11492 6.36025 6.91697 6.2688 6.69907C6.17736 6.48116 6.13245 6.24776 6.13676 6.01279C6.14107 5.77782 6.1945 5.54609 6.29387 5.33142C6.39325 5.11676 6.53653 4.92356 6.71516 4.76334M11.6 9.465C10.564 10.2251 9.3025 10.6462 8.00001 10.6667C3.75759 10.6667 1.33334 6.00001 1.33334 6.00001C2.08722 4.64778 3.13282 3.46637 4.40001 2.53501L11.6 9.465ZM6.72728 1.47335C7.14445 1.37936 7.57156 1.33238 8.00001 1.33335C12.2424 1.33335 14.6667 6.00001 14.6667 6.00001C14.2988 6.66244 13.86 7.2861 13.3576 7.86084L6.72728 1.47335Z" stroke="#999392" stroke-width="2" stroke-linecap="round" stroke-linejoin="round"/>
</svg>
