<svg width="18" height="18" viewBox="0 0 18 18" fill="none" xmlns="http://www.w3.org/2000/svg">
<path d="M6.31568 11.5631C4.69196 9.96847 2.46571 8.98304 0.00772466 8.98304C0.0046348 8.98304 0.00154493 8.98304 0 8.98304V6.40456H6.4161V0H11.5839V6.40456H18V11.5631H11.5839V17.9676H8.99923C8.99923 17.9645 8.99923 17.9614 8.99923 17.9599C8.99923 15.5079 8.01356 13.2841 6.4161 11.6648L6.31568 11.5631Z" fill="#F28080"/>
<path d="M0.0249023 15.366V17.9676C1.46323 17.9676 2.62966 17.9661 2.62966 17.9661C2.6312 16.5304 1.46478 15.366 0.0249023 15.366Z" fill="#F28080"/>
<path d="M6.84261 17.9984C6.84261 14.2402 3.79137 11.1945 0.0263672 11.1945V13.227C2.66666 13.227 4.80639 15.3629 4.80639 17.9984H6.84261Z" fill="#F28080"/>
</svg>
